<svg xmlns="http://www.w3.org/2000/svg" viewBox="0 0 64 64" fill="none">
  <!-- Rounded Squircle background with a beautiful warm gradient -->
  <rect width="64" height="64" rx="18" fill="url(#grad)" />
  
  <!-- Cat silhouette / outline -->
  <path d="M19 16.5c1-.2 2-.3 3-.3 2.7-3 7.5-4.3 7.5-3.4 0 .9-1.5 4.5-3.5 6.3a12 12 0 0 1 5 10.2c0 6.6-5.4 12-12 12s-12-5.4-12-12c0-4.2 2-8 5-10.2-2-1.8-3.5-5.4-3.5-6.3 0-.9 4.8.4 7.5 3.4 1-.1 2-.2 3-.2z" fill="#ffffff" />
  
  <!-- Food bowl at the bottom right -->
  <path d="M38 42h16c1.1 0 2 .9 2 2v2a6 6 0 0 1-6 6H42a6 6 0 0 1-6-6v-2c0-1.1.9-2 2-2z" fill="#ffffff" opacity="0.9" />
  
  <!-- Little kibble pieces jumping into the bowl -->
  <circle cx="43" cy="35" r="2.5" fill="#ffffff" opacity="0.7" />
  <circle cx="49" cy="31" r="2" fill="#ffffff" opacity="0.8" />
  <circle cx="51" cy="37" r="1.5" fill="#ffffff" opacity="0.6" />

  <defs>
    <linearGradient id="grad" x1="0" y1="0" x2="64" y2="64" gradientUnits="userSpaceOnUse">
      <stop stop-color="#f07c00" />
      <stop stop-color="#ff9b30" />
    </linearGradient>
  </defs>
</svg>